<?xml version="1.0" encoding="UTF-8"?>
<svg xmlns="http://www.w3.org/2000/svg" viewBox="0 0 128 128" width="128" height="128">
<path d="M20.54 0.08C49.54 0.08 78.55 0.08 107.55 0.08C108.94 1 110.43 0.77 111.97 1.3C116.27 2.78 119.91 5.3 122.92 8.84C125.88 12.32 125.81 17.15 127.92 19.93C127.92 32.79 127.92 45.64 127.92 58.5C127.69 53.33 127.47 48.17 127.25 43C126.92 54.31 126.58 65.62 126.25 76.93C126.08 71.07 125.92 65.2 125.75 59.33C124.05 70.93 124.78 83.51 124.76 95.25C124.76 103.12 125.26 111.2 119.81 117.58C112.9 125.69 102.94 124.62 93.25 124.6C73.75 124.56 54.25 124.63 34.75 124.6C24.24 124.59 14.15 125.36 7.19 116.07C2.64 109.98 3.3 102.43 3.23 95.25C3.1 82.32 3.13 69.33 2.25 56.47C2.08 61.54 1.92 66.62 1.75 71.7C1.42 60.63 1.08 49.57 0.75 38.5C0.53 47.5 0.31 56.5 0.08 65.5C0.08 50.49 0.08 35.48 0.08 20.47C1.02 19.15 0.73 17.84 1.17 16.35C2.23 12.8 4.71 8.79 7.47 6.23C9.84 4.04 13.31 2.04 16.35 1.16C17.86 0.72 19.22 1.05 20.54 0.08ZM22.29 3.74C2.18 4.2 3.54 23.46 3.48 37.75C3.47 40.94 2.47 50.5 3.81 52.93C4.63 54.4 7.13 55.4 8.52 56.25C13.92 59.55 19.6 62.14 25.57 64.22C48.71 72.29 76.04 72.61 99.41 65.21C105.86 63.17 112.05 60.6 117.9 57.17C119.62 56.16 123.6 54.6 124.36 52.62C125.69 49.14 124.53 40.29 124.54 36.25C124.55 27.07 126.12 16.4 118.91 9.35C111.12 1.75 99.75 3.71 89.75 3.73C67.28 3.79 44.75 3.22 22.29 3.74ZM27.75 20.32C31.08 25.72 34.42 31.11 37.75 36.51C44.17 32.52 42.41 16.37 55.04 20.75C55.04 32.09 55.04 43.44 55.04 54.78C52.61 54.78 50.18 54.78 47.75 54.78C47.42 48.24 47.08 41.7 46.75 35.16C44.05 38.3 41.4 47.97 37.25 48.39C33.17 46.75 31.23 36.18 27.79 35.25C27.79 41.76 27.79 48.27 27.79 54.78C25.22 54.78 22.64 54.78 20.07 54.78C20.07 43.29 20.07 31.81 20.07 20.32C22.63 20.32 25.19 20.32 27.75 20.32ZM69.02 44.06C69.02 47.51 69.02 50.97 69.02 54.42C66.73 55.17 63.28 55.3 61.11 54.25C61.11 43.08 61.11 31.92 61.11 20.75C65.67 19.19 77.78 19.78 82.02 22.25C88.19 25.85 89.17 35.79 83.74 40.5C79.23 44.42 74.26 42.78 69.02 44.06ZM99.22 20.37C99.22 29.59 99.22 38.81 99.22 48.04C103.5 48.04 107.78 48.04 112.06 48.04C112.06 50.22 112.06 52.41 112.06 54.6C108.23 55.35 94.32 55.82 91.1 54.25C91.1 42.96 91.1 31.66 91.1 20.37C93.81 20.37 96.51 20.37 99.22 20.37ZM69.07 27.69C69.07 30.58 69.07 33.47 69.07 36.36C72.7 37.37 79.14 37.27 79.3 32.22C79.48 26.75 72.88 26.75 69.07 27.69ZM62.25 110.63C62.19 108.28 66.61 105.36 68.38 103.63C73.59 98.51 78.59 92.56 75.89 84.81C71.6 72.52 49.2 76.32 50.7 89.77C52.89 89.77 55.07 89.77 57.25 89.77C58.54 88.24 58.8 86.15 60.84 85.09C65.11 82.88 69.78 86.46 68.77 91.09C67.32 97.69 52.19 106.55 50.7 111.41C50.17 113.14 50.5 115.43 50.78 117.18C59.52 117.18 68.26 117.18 77 117.18C77 115 77 112.82 77 110.63C72.09 110.63 67.17 110.63 62.25 110.63Z" fill="#044a97" fill-rule="evenodd" stroke="#044a97" stroke-width="0.25" stroke-linejoin="round"/>
<path d="M22.29 3.74C44.75 3.22 67.28 3.79 89.75 3.73C99.75 3.71 111.12 1.75 118.91 9.35C126.12 16.4 124.55 27.07 124.54 36.25C124.53 40.29 125.69 49.14 124.36 52.62C123.6 54.6 119.62 56.16 117.9 57.17C112.05 60.6 105.86 63.17 99.41 65.21C76.04 72.61 48.71 72.29 25.57 64.22C19.6 62.14 13.92 59.55 8.52 56.25C7.13 55.4 4.63 54.4 3.81 52.93C2.47 50.5 3.47 40.94 3.48 37.75C3.54 23.46 2.18 4.2 22.29 3.74ZM27.75 20.32C25.19 20.32 22.63 20.32 20.07 20.32C20.07 31.81 20.07 43.29 20.07 54.78C22.64 54.78 25.22 54.78 27.79 54.78C27.79 48.27 27.79 41.76 27.79 35.25C31.23 36.18 33.17 46.75 37.25 48.39C41.4 47.97 44.05 38.3 46.75 35.16C47.08 41.7 47.42 48.24 47.75 54.78C50.18 54.78 52.61 54.78 55.04 54.78C55.04 43.44 55.04 32.09 55.04 20.75C42.41 16.37 44.17 32.52 37.75 36.51C34.42 31.11 31.08 25.72 27.75 20.32ZM69.02 44.06C74.26 42.78 79.23 44.42 83.74 40.5C89.17 35.79 88.19 25.85 82.02 22.25C77.78 19.78 65.67 19.19 61.11 20.75C61.11 31.92 61.11 43.08 61.11 54.25C63.28 55.3 66.73 55.17 69.02 54.42C69.02 50.97 69.02 47.51 69.02 44.06ZM99.22 20.37C96.51 20.37 93.81 20.37 91.1 20.37C91.1 31.66 91.1 42.96 91.1 54.25C94.32 55.82 108.23 55.35 112.06 54.6C112.06 52.41 112.06 50.22 112.06 48.04C107.78 48.04 103.5 48.04 99.22 48.04C99.22 38.81 99.22 29.59 99.22 20.37ZM69.07 27.69C72.88 26.75 79.48 26.75 79.3 32.22C79.14 37.27 72.7 37.37 69.07 36.36C69.07 33.47 69.07 30.58 69.07 27.69ZM62.25 110.63C67.17 110.63 72.09 110.63 77 110.63C77 112.82 77 115 77 117.18C68.26 117.18 59.52 117.18 50.78 117.18C50.5 115.43 50.17 113.14 50.7 111.41C52.19 106.55 67.32 97.69 68.77 91.09C69.78 86.46 65.11 82.88 60.84 85.09C58.8 86.15 58.54 88.24 57.25 89.77C55.07 89.77 52.89 89.77 50.7 89.77C49.2 76.32 71.6 72.52 75.89 84.81C78.59 92.56 73.59 98.51 68.38 103.63C66.61 105.36 62.19 108.28 62.25 110.63Z" fill="#fefefe" fill-rule="evenodd" stroke="#fefefe" stroke-width="0.25" stroke-linejoin="round"/>
<path d="M127.92 58.5C127.92 74.98 127.92 91.47 127.92 107.95C126.93 109.07 127.27 110.26 126.8 111.62C125.66 114.97 123.34 118.97 120.72 121.48C118.98 123.15 116.4 125.02 114.2 125.92C112.42 126.65 110.07 126.69 108.56 127.92C78.88 127.92 49.2 127.92 19.52 127.92C18.54 126.94 17.59 127.3 16.32 126.89C13.05 125.84 9.61 123.56 7.2 121.06C4.57 118.33 2.57 115 1.29 111.45C0.78 110.03 1.07 108.66 0.08 107.46C0.08 93.48 0.08 79.49 0.08 65.5C0.31 56.5 0.53 47.5 0.75 38.5C1.08 49.57 1.42 60.63 1.75 71.7C1.92 66.62 2.08 61.54 2.25 56.47C3.13 69.33 3.1 82.32 3.23 95.25C3.3 102.43 2.64 109.98 7.19 116.07C14.15 125.36 24.24 124.59 34.75 124.6C54.25 124.63 73.75 124.56 93.25 124.6C102.94 124.62 112.9 125.69 119.81 117.58C125.26 111.2 124.76 103.12 124.76 95.25C124.78 83.51 124.05 70.93 125.75 59.33C125.92 65.2 126.08 71.07 126.25 76.93C126.58 65.62 126.92 54.31 127.25 43C127.47 48.17 127.69 53.33 127.92 58.5Z" fill="#2a77c3" fill-rule="evenodd" stroke="#2a77c3" stroke-width="0.25" stroke-linejoin="round"/>
</svg>